<svg version="1.1" id="OBJECTS" xmlns="http://www.w3.org/2000/svg" x="0" y="0" viewBox="0 0 358.8 309.92" xml:space="preserve"><style>.st0{enable-background:new}.st1{fill:#ec827d}.st2{fill:#e56363}.st3{fill:#f99898}.st4{fill:#fbd15b}.st7{fill:#a5b7c6}.st8{fill:#bfced8}.st9{fill:#112b46}.st10{fill:#878cf0}.st11{fill:#8fa6b5}.st12{fill:#516193}.st13{fill:#bee1f4}.st14{fill:#56548c}.st15{fill:#2c2264}.st16{fill:#4d338b}.st17{fill:#fff}.st18{fill:#ff82b1}.st19{fill:#fa9887}.st20{fill:#487596}.st21{fill:#3d5e7c}.st23{fill:#606bf1}.st24{fill-rule:evenodd;clip-rule:evenodd;fill:#112b46}.st25,.st26,.st28,.st29,.st32,.st34{fill-rule:evenodd;clip-rule:evenodd;fill:#56548c}.st26,.st28,.st29,.st32,.st34{fill:#ffc8af}.st28,.st29,.st32,.st34{fill:#2c2264}.st29,.st32,.st34{fill:#ec827d}.st32,.st34{fill:#fff}.st34{fill:#e8f2f9}.st35{fill:#ffc8af}.st36{fill-rule:evenodd;clip-rule:evenodd;fill:#606bf1}</style><g class="st0" id="XMLID_1340_"><g id="XMLID_1345_"><path id="XMLID_1346_" class="st1" d="M232.81 86.87l-.1 51.06-59.19 34.41.09-51.07z"/></g><g id="XMLID_1343_"><path id="XMLID_1344_" class="st2" d="M173.61 121.27l-.09 51.07-88.45-51.07.09-51.06z"/></g><g id="XMLID_1341_"><path id="XMLID_1342_" class="st3" d="M232.81 86.87l-59.2 34.4-88.45-51.06 59.2-34.41z"/></g></g><g class="st0" id="XMLID_1333_"><g id="XMLID_1338_"><path id="XMLID_1339_" class="st4" d="M123.1 158.11l-.09 26.76-59.2 34.4.09-26.76z"/></g><g id="XMLID_1336_"><path id="XMLID_1337_" fill="#efbc3f" d="M63.9 192.51l-.09 26.76L0 182.42l.09-26.75z"/></g><g id="XMLID_1334_"><path id="XMLID_1335_" fill="#fcdd92" d="M123.1 158.11l-59.2 34.4L.09 155.67l59.2-34.4z"/></g></g><g id="XMLID_33_"><g id="XMLID_34_"><path id="XMLID_1332_" class="st7" d="M206.48 75.31l-1.84 1.07c.33-.19.54-.6.54-1.19l1.84-1.07c0 .58-.21.99-.54 1.19z"/><g id="XMLID_1326_"><path id="XMLID_1330_" class="st7" d="M205.28 33.37l1.84-1.08-.1 41.83-1.84 1.07z"/><path class="st8" d="M205.28 29.09L155.33.26c-.52-.3-.98-.33-1.32-.13l-1.84 1.07c.34-.2.8-.17 1.32.13l49.94 28.83c1.02.59 1.85 2.02 1.85 3.2l1.84-1.07c.01-1.18-.83-2.61-1.84-3.2z"/><path id="XMLID_1327_" class="st9" d="M203.43 30.16c1.02.59 1.85 2.02 1.85 3.2l-.1 41.82c0 1.18-.84 1.65-1.86 1.06l-49.94-28.83c-1.03-.59-1.85-2.02-1.85-3.2l.1-41.82c0-1.18.83-1.65 1.86-1.06l49.94 28.83z"/><path class="st10" d="M153.48 5.53l-.1 37.68 49.95 28.83.09-37.67z"/></g><g id="XMLID_39_"><g id="XMLID_1318_"><path id="XMLID_1324_" class="st7" d="M204.08 77.33l-.01 2.13c0 .39-.25.77-.76 1.06l.01-2.13c.51-.29.76-.68.76-1.06z"/><path id="XMLID_1323_" class="st7" d="M167.53 99.14l-.01 2.13c-1.01.59-2.68.59-3.7 0l.01-2.13c1.02.59 2.68.59 3.7 0z"/><path id="XMLID_1322_" class="st11" d="M113.11 71.37l.01-2.13c0 .39.26.78.77 1.08l-.01 2.13c-.52-.3-.77-.7-.77-1.08z"/><path id="XMLID_1321_" class="st7" d="M203.33 78.39l-.01 2.14-35.8 20.75.01-2.14z"/><path id="XMLID_1320_" class="st11" d="M163.83 99.14l-.01 2.14-49.94-28.84.01-2.13z"/><path id="XMLID_1319_" class="st8" d="M203.32 76.25c1.02.59 1.02 1.55.01 2.14l-35.8 20.75c-1.01.59-2.68.59-3.7 0l-49.94-28.83c-1.03-.59-1.02-1.55-.01-2.14l35.8-20.75c1.01-.59 2.67-.59 3.7 0l49.94 28.83z"/></g><g class="st0" id="XMLID_1315_"><g id="XMLID_1316_"><path id="XMLID_1317_" class="st7" d="M162.8 81.66l-18.41-10.63c-.51-.29-1.33-.3-1.85 0l-9.51 5.47c-.51.29-.5.78.01 1.07l18.41 10.63c.52.3 1.34.29 1.85 0l9.51-5.47c.51-.3.51-.78-.01-1.07"/></g></g><g id="XMLID_48_"><g class="st0"><g id="XMLID_1313_"><path id="XMLID_1314_" class="st12" d="M153.92 50.67v.54l-3.36 1.95v-.53z"/></g><g id="XMLID_1311_"><path id="XMLID_1312_" class="st12" d="M150.56 52.63v.53l-3.31-1.91v-.53z"/></g><g id="XMLID_1309_"><path id="XMLID_1310_" class="st9" d="M153.92 50.67l-3.36 1.96-3.31-1.91 3.36-1.96z"/></g></g><g class="st0"><g id="XMLID_1307_"><path id="XMLID_1308_" class="st12" d="M158.17 53.12l-.01.54-3.36 1.95v-.53z"/></g><g id="XMLID_1293_"><path id="XMLID_1306_" class="st12" d="M154.8 55.08v.53l-3.32-1.91.01-.54z"/></g><g id="XMLID_1285_"><path id="XMLID_1291_" class="st9" d="M158.17 53.12l-3.37 1.96-3.31-1.92 3.36-1.95z"/></g></g><g class="st0"><g id="XMLID_581_"><path id="XMLID_712_" class="st12" d="M162.4 55.57v.53l-3.36 1.96v-.54z"/></g><g id="XMLID_66_"><path id="XMLID_67_" class="st12" d="M159.04 57.52v.54l-3.31-1.91v-.54z"/></g><g id="XMLID_68_"><path id="XMLID_69_" class="st9" d="M162.4 55.57l-3.36 1.95-3.31-1.91 3.36-1.95z"/></g></g><g class="st0"><g id="XMLID_70_"><path id="XMLID_71_" class="st12" d="M166.64 58.02v.53l-3.37 1.95.01-.53z"/></g><g id="XMLID_72_"><path id="XMLID_73_" class="st12" d="M163.28 59.97l-.01.53-3.3-1.91v-.53z"/></g><g id="XMLID_74_"><path id="XMLID_75_" class="st9" d="M166.64 58.02l-3.36 1.95-3.31-1.91 3.36-1.95z"/></g></g><g class="st0"><g id="XMLID_76_"><path id="XMLID_77_" class="st12" d="M170.87 60.46V61l-3.36 1.95v-.53z"/></g><g id="XMLID_78_"><path id="XMLID_79_" class="st12" d="M167.51 62.42v.53l-3.31-1.91v-.53z"/></g><g id="XMLID_80_"><path id="XMLID_81_" class="st9" d="M170.87 60.46l-3.36 1.96-3.31-1.91 3.37-1.96z"/></g></g><g class="st0"><g id="XMLID_82_"><path id="XMLID_83_" class="st12" d="M175.12 62.91v.54l-3.36 1.95v-.53z"/></g><g id="XMLID_84_"><path id="XMLID_85_" class="st12" d="M171.76 64.87v.53l-3.31-1.91v-.53z"/></g><g id="XMLID_86_"><path id="XMLID_87_" class="st9" d="M175.12 62.91l-3.36 1.96-3.31-1.91 3.36-1.96z"/></g></g><g class="st0"><g id="XMLID_88_"><path id="XMLID_89_" class="st12" d="M179.36 65.36l-.01.53-3.36 1.96v-.54z"/></g><g id="XMLID_90_"><path id="XMLID_91_" class="st12" d="M175.99 67.31v.54l-3.31-1.91v-.54z"/></g><g id="XMLID_92_"><path id="XMLID_93_" class="st9" d="M179.36 65.36l-3.37 1.95-3.31-1.91 3.37-1.95z"/></g></g><g class="st0"><g id="XMLID_94_"><path id="XMLID_95_" class="st12" d="M183.59 67.8v.54l-3.36 1.95v-.53z"/></g><g id="XMLID_96_"><path id="XMLID_97_" class="st12" d="M180.23 69.76v.53l-3.31-1.91v-.53z"/></g><g id="XMLID_98_"><path id="XMLID_99_" class="st9" d="M183.59 67.8l-3.36 1.96-3.31-1.91 3.36-1.96z"/></g></g><g class="st0"><g id="XMLID_100_"><path id="XMLID_101_" class="st12" d="M187.84 70.26v.53l-3.37 1.95.01-.53z"/></g><g id="XMLID_102_"><path id="XMLID_103_" class="st12" d="M184.48 72.21l-.01.53-3.31-1.91v-.54z"/></g><g id="XMLID_104_"><path id="XMLID_105_" class="st9" d="M187.84 70.26l-3.36 1.95-3.32-1.92 3.36-1.95z"/></g></g><g class="st0"><g id="XMLID_106_"><path id="XMLID_107_" class="st12" d="M192.07 72.7v.53l-3.36 1.96v-.53z"/></g><g id="XMLID_108_"><path id="XMLID_109_" class="st12" d="M188.71 74.66v.53l-3.31-1.91v-.54z"/></g><g id="XMLID_110_"><path id="XMLID_111_" class="st9" d="M192.07 72.7l-3.36 1.96-3.31-1.92 3.36-1.95z"/></g></g><g class="st0"><g id="XMLID_112_"><path id="XMLID_153_" class="st12" d="M200.55 77.6v.53l-3.36 1.96v-.54z"/></g><g id="XMLID_154_"><path id="XMLID_155_" class="st12" d="M197.19 79.55v.54l-7.55-4.37v-.53z"/></g><g id="XMLID_156_"><path id="XMLID_157_" class="st9" d="M200.55 77.6l-3.36 1.95-7.55-4.36 3.36-1.95z"/></g></g><g class="st0"><g id="XMLID_158_"><path id="XMLID_159_" class="st12" d="M153.88 55.61v.54l-3.35 1.95v-.54z"/></g><g id="XMLID_160_"><path id="XMLID_161_" class="st12" d="M150.53 57.56v.54l-7.56-4.36v-.54z"/></g><g id="XMLID_162_"><path id="XMLID_163_" class="st9" d="M153.88 55.61l-3.35 1.95-7.56-4.36 3.36-1.95z"/></g></g><g class="st0"><g id="XMLID_164_"><path id="XMLID_165_" class="st12" d="M158.12 58.06v.53l-3.36 1.95v-.53z"/></g><g id="XMLID_166_"><path id="XMLID_167_" class="st12" d="M154.76 60.01v.53l-3.31-1.91.01-.53z"/></g><g id="XMLID_168_"><path id="XMLID_187_" class="st9" d="M158.12 58.06l-3.36 1.95-3.3-1.91 3.35-1.95z"/></g></g><g class="st0"><g id="XMLID_222_"><path id="XMLID_226_" class="st12" d="M162.35 60.51v.53L159 62.99v-.54z"/></g><g id="XMLID_237_"><path id="XMLID_238_" class="st12" d="M159 62.45v.54l-3.31-1.91v-.54z"/></g><g id="XMLID_239_"><path id="XMLID_240_" class="st9" d="M162.35 60.51L159 62.45l-3.31-1.91 3.36-1.94z"/></g></g><g class="st0"><g id="XMLID_241_"><path id="XMLID_242_" class="st12" d="M166.59 62.95v.54l-3.35 1.94v-.53z"/></g><g id="XMLID_243_"><path id="XMLID_244_" class="st12" d="M163.24 64.9v.53l-3.31-1.91v-.53z"/></g><g id="XMLID_245_"><path id="XMLID_246_" class="st9" d="M166.59 62.95l-3.35 1.95-3.31-1.91 3.35-1.95z"/></g></g><g class="st0"><g id="XMLID_247_"><path id="XMLID_248_" class="st12" d="M170.84 65.4l-.01.54-3.35 1.94v-.53z"/></g><g id="XMLID_249_"><path id="XMLID_250_" class="st12" d="M167.48 67.35v.53l-3.31-1.91v-.53z"/></g><g id="XMLID_251_"><path id="XMLID_252_" class="st9" d="M170.84 65.4l-3.36 1.95-3.31-1.91 3.36-1.95z"/></g></g><g class="st0"><g id="XMLID_253_"><path id="XMLID_254_" class="st12" d="M175.07 67.85v.53l-3.35 1.95v-.53z"/></g><g id="XMLID_255_"><path id="XMLID_256_" class="st12" d="M171.72 69.8v.53l-3.31-1.91v-.53z"/></g><g id="XMLID_257_"><path id="XMLID_258_" class="st9" d="M175.07 67.85l-3.35 1.95-3.31-1.91 3.35-1.95z"/></g></g><g class="st0"><g id="XMLID_259_"><path id="XMLID_260_" class="st12" d="M179.31 70.29v.54l-3.36 1.95v-.54z"/></g><g id="XMLID_261_"><path id="XMLID_262_" class="st12" d="M175.95 72.24v.54l-3.31-1.91.01-.54z"/></g><g id="XMLID_263_"><path id="XMLID_264_" class="st9" d="M179.31 70.29l-3.36 1.95-3.3-1.91 3.35-1.95z"/></g></g><g class="st0"><g id="XMLID_265_"><path id="XMLID_266_" class="st12" d="M183.55 72.74v.54l-3.35 1.95v-.54z"/></g><g id="XMLID_267_"><path id="XMLID_268_" class="st12" d="M180.2 74.69v.54l-3.32-1.92v-.53z"/></g><g id="XMLID_269_"><path id="XMLID_270_" class="st9" d="M183.55 72.74l-3.35 1.95-3.32-1.91 3.36-1.95z"/></g></g><g class="st0"><g id="XMLID_271_"><path id="XMLID_272_" class="st12" d="M187.79 75.19v.53l-3.36 1.95.01-.53z"/></g><g id="XMLID_273_"><path id="XMLID_274_" class="st12" d="M184.44 77.14l-.01.53-3.3-1.91v-.53z"/></g><g id="XMLID_275_"><path id="XMLID_276_" class="st9" d="M187.79 75.19l-3.35 1.95-3.31-1.91 3.35-1.95z"/></g></g><g class="st0"><g id="XMLID_277_"><path id="XMLID_278_" class="st12" d="M192.03 77.64v.53l-3.36 1.95v-.53z"/></g><g id="XMLID_279_"><path id="XMLID_280_" class="st12" d="M188.67 79.59v.53l-3.31-1.91v-.53z"/></g><g id="XMLID_281_"><path id="XMLID_282_" class="st9" d="M192.03 77.64l-3.36 1.95-3.31-1.91 3.36-1.95z"/></g></g><g class="st0"><g id="XMLID_283_"><path id="XMLID_284_" class="st12" d="M196.27 80.09v.53l-3.35 1.95v-.53z"/></g><g id="XMLID_285_"><path id="XMLID_286_" class="st12" d="M192.92 82.04v.53l-3.32-1.92v-.53z"/></g><g id="XMLID_287_"><path id="XMLID_288_" class="st9" d="M196.27 80.09l-3.35 1.95-3.32-1.92 3.35-1.95z"/></g></g><g class="st0"><g id="XMLID_289_"><path id="XMLID_290_" class="st12" d="M149.61 58.1l-.01.53-3.35 1.95v-.53z"/></g><g id="XMLID_291_"><path id="XMLID_292_" class="st12" d="M146.25 60.05v.53l-7.55-4.36v-.53z"/></g><g id="XMLID_293_"><path id="XMLID_294_" class="st9" d="M149.61 58.1l-3.36 1.95-7.55-4.36 3.35-1.95z"/></g></g><g class="st0"><g id="XMLID_295_"><path id="XMLID_296_" class="st12" d="M153.84 60.54v.54l-3.35 1.95v-.54z"/></g><g id="XMLID_297_"><path id="XMLID_298_" class="st12" d="M150.49 62.49v.54l-3.31-1.91v-.54z"/></g><g id="XMLID_299_"><path id="XMLID_300_" class="st9" d="M153.84 60.54l-3.35 1.95-3.31-1.91 3.35-1.95z"/></g></g><g class="st0"><g id="XMLID_301_"><path id="XMLID_302_" class="st12" d="M158.08 62.99v.53l-3.36 1.95.01-.53z"/></g><g id="XMLID_303_"><path id="XMLID_304_" class="st12" d="M154.73 64.94l-.01.53-3.31-1.91.01-.53z"/></g><g id="XMLID_305_"><path id="XMLID_306_" class="st9" d="M158.08 62.99l-3.35 1.95-3.31-1.91 3.35-1.95z"/></g></g><g class="st0"><g id="XMLID_307_"><path id="XMLID_308_" class="st12" d="M162.32 65.44l-.01.53-3.35 1.95v-.53z"/></g><g id="XMLID_309_"><path id="XMLID_310_" class="st12" d="M158.96 67.39v.53l-3.31-1.91v-.54z"/></g><g id="XMLID_311_"><path id="XMLID_312_" class="st9" d="M162.32 65.44l-3.36 1.95-3.31-1.92 3.36-1.94z"/></g></g><g class="st0"><g id="XMLID_313_"><path id="XMLID_314_" class="st12" d="M166.56 67.89v.53l-3.35 1.95v-.53z"/></g><g id="XMLID_315_"><path id="XMLID_316_" class="st12" d="M163.21 69.84v.53l-3.31-1.91v-.53z"/></g><g id="XMLID_317_"><path id="XMLID_318_" class="st9" d="M166.56 67.89l-3.35 1.95-3.31-1.91 3.35-1.95z"/></g></g><g class="st0"><g id="XMLID_64_"><path id="XMLID_65_" class="st12" d="M170.8 70.33v.54l-3.36 1.95v-.54z"/></g><g id="XMLID_62_"><path id="XMLID_63_" class="st12" d="M167.44 72.28v.54l-3.31-1.92v-.53z"/></g><g id="XMLID_60_"><path id="XMLID_61_" class="st9" d="M170.8 70.33l-3.36 1.95-3.31-1.91 3.36-1.95z"/></g></g><g class="st0"><g id="XMLID_58_"><path id="XMLID_59_" class="st12" d="M175.03 72.78v.53l-3.35 1.95v-.53z"/></g><g id="XMLID_56_"><path id="XMLID_57_" class="st12" d="M171.68 74.73v.53l-3.31-1.91v-.53z"/></g><g id="XMLID_54_"><path id="XMLID_55_" class="st9" d="M175.03 72.78l-3.35 1.95-3.31-1.91 3.35-1.95z"/></g></g><g class="st0"><g id="XMLID_52_"><path id="XMLID_53_" class="st12" d="M179.28 75.23v.53l-3.36 1.95v-.53z"/></g><g id="XMLID_49_"><path id="XMLID_50_" class="st12" d="M175.92 77.18v.53l-3.31-1.91v-.54z"/></g><g id="XMLID_46_"><path id="XMLID_47_" class="st9" d="M179.28 75.23l-3.36 1.95-3.31-1.92 3.35-1.95z"/></g></g><g class="st0"><g id="XMLID_44_"><path id="XMLID_45_" class="st12" d="M183.51 77.68v.53l-3.35 1.95v-.54z"/></g><g id="XMLID_42_"><path id="XMLID_43_" class="st12" d="M180.16 79.62v.54l-3.31-1.91v-.54z"/></g><g id="XMLID_40_"><path id="XMLID_41_" class="st9" d="M183.51 77.68l-3.35 1.94-3.31-1.91 3.36-1.95z"/></g></g><g class="st0"><g id="XMLID_37_"><path id="XMLID_38_" class="st12" d="M192 82.57l-.01.54-3.35 1.94v-.53z"/></g><g id="XMLID_35_"><path id="XMLID_36_" class="st12" d="M188.64 84.52v.53l-7.55-4.36v-.53z"/></g><g id="XMLID_347_"><path id="XMLID_348_" class="st9" d="M192 82.57l-3.36 1.95-7.55-4.36 3.35-1.95z"/></g></g><g class="st0"><g id="XMLID_349_"><path id="XMLID_350_" class="st12" d="M149.57 63.03v.53l-3.36 1.95v-.53z"/></g><g id="XMLID_351_"><path id="XMLID_352_" class="st12" d="M146.21 64.98v.53l-11.79-6.81v-.53z"/></g><g id="XMLID_353_"><path id="XMLID_354_" class="st9" d="M149.57 63.03l-3.36 1.95-11.79-6.81 3.36-1.95z"/></g></g><g class="st0"><g id="XMLID_355_"><path id="XMLID_356_" class="st12" d="M153.8 65.47v.54l-3.35 1.95v-.54z"/></g><g id="XMLID_357_"><path id="XMLID_358_" class="st12" d="M150.45 67.42v.54l-3.31-1.91v-.54z"/></g><g id="XMLID_359_"><path id="XMLID_360_" class="st9" d="M153.8 65.47l-3.35 1.95-3.31-1.91 3.36-1.95z"/></g></g><g class="st0"><g id="XMLID_361_"><path id="XMLID_362_" class="st12" d="M158.04 67.92v.53l-3.35 1.95v-.53z"/></g><g id="XMLID_363_"><path id="XMLID_364_" class="st12" d="M154.69 69.87v.53l-3.31-1.91v-.53z"/></g><g id="XMLID_365_"><path id="XMLID_366_" class="st9" d="M158.04 67.92l-3.35 1.95-3.31-1.91 3.35-1.95z"/></g></g><g class="st0"><g id="XMLID_367_"><path id="XMLID_368_" class="st12" d="M162.29 70.37l-.01.53-3.35 1.95v-.53z"/></g><g id="XMLID_369_"><path id="XMLID_370_" class="st12" d="M158.93 72.32v.53l-3.31-1.91v-.53z"/></g><g id="XMLID_371_"><path id="XMLID_372_" class="st9" d="M162.29 70.37l-3.36 1.95-3.31-1.91 3.36-1.95z"/></g></g><g class="st0"><g id="XMLID_373_"><path id="XMLID_374_" class="st12" d="M166.52 72.82v.53l-3.35 1.95v-.53z"/></g><g id="XMLID_375_"><path id="XMLID_376_" class="st12" d="M163.17 74.77v.53l-3.31-1.91v-.53z"/></g><g id="XMLID_377_"><path id="XMLID_378_" class="st9" d="M166.52 72.82l-3.35 1.95-3.31-1.91 3.35-1.95z"/></g></g><g class="st0"><g id="XMLID_379_"><path id="XMLID_380_" class="st12" d="M170.76 75.26v.54l-3.36 1.95v-.54z"/></g><g id="XMLID_381_"><path id="XMLID_382_" class="st12" d="M167.4 77.21v.54l-3.31-1.91.01-.54z"/></g><g id="XMLID_383_"><path id="XMLID_384_" class="st9" d="M170.76 75.26l-3.36 1.95-3.3-1.91 3.35-1.95z"/></g></g><g class="st0"><g id="XMLID_385_"><path id="XMLID_386_" class="st12" d="M175 77.71v.54l-3.35 1.95v-.54z"/></g><g id="XMLID_387_"><path id="XMLID_388_" class="st12" d="M171.65 79.66v.54l-3.32-1.92v-.53z"/></g><g id="XMLID_389_"><path id="XMLID_390_" class="st9" d="M175 77.71l-3.35 1.95-3.32-1.91 3.36-1.95z"/></g></g><g class="st0"><g id="XMLID_391_"><path id="XMLID_392_" class="st12" d="M179.24 80.16v.53l-3.36 1.95.01-.53z"/></g><g id="XMLID_393_"><path id="XMLID_394_" class="st12" d="M175.89 82.11l-.01.53-3.3-1.91v-.53z"/></g><g id="XMLID_395_"><path id="XMLID_396_" class="st9" d="M179.24 80.16l-3.35 1.95-3.31-1.91 3.35-1.95z"/></g></g><g class="st0"><g id="XMLID_397_"><path id="XMLID_398_" class="st12" d="M187.72 85.06v.53l-3.35 1.95v-.53z"/></g><g id="XMLID_399_"><path id="XMLID_400_" class="st12" d="M184.37 87.01v.53l-7.56-4.36v-.54z"/></g><g id="XMLID_401_"><path id="XMLID_402_" class="st9" d="M187.72 85.06l-3.35 1.95-7.56-4.37 3.36-1.94z"/></g></g><g class="st0"><g id="XMLID_403_"><path id="XMLID_404_" class="st12" d="M136.81 60.62v.53l-3.36 1.95v-.53z"/></g><g id="XMLID_405_"><path id="XMLID_406_" class="st12" d="M133.45 62.57v.53l-3.31-1.91v-.53z"/></g><g id="XMLID_407_"><path id="XMLID_408_" class="st9" d="M136.81 60.62l-3.36 1.95-3.31-1.91 3.36-1.95z"/></g></g><g class="st0"><g id="XMLID_409_"><path id="XMLID_410_" class="st12" d="M141.06 63.07l-.01.53-3.36 1.95v-.53z"/></g><g id="XMLID_411_"><path id="XMLID_412_" class="st12" d="M137.69 65.02v.53l-3.32-1.91.01-.53z"/></g><g id="XMLID_413_"><path id="XMLID_414_" class="st9" d="M141.06 63.07l-3.37 1.95-3.31-1.91 3.36-1.96z"/></g></g><g class="st0"><g id="XMLID_415_"><path id="XMLID_416_" class="st12" d="M145.29 65.51v.54L141.93 68v-.53z"/></g><g id="XMLID_417_"><path id="XMLID_418_" class="st12" d="M141.93 67.47V68l-3.31-1.91v-.53z"/></g><g id="XMLID_419_"><path id="XMLID_420_" class="st9" d="M145.29 65.51l-3.36 1.96-3.31-1.91 3.36-1.96z"/></g></g><g class="st0"><g id="XMLID_421_"><path id="XMLID_422_" class="st12" d="M166.48 77.75v.53l-3.36 1.96v-.54z"/></g><g id="XMLID_423_"><path id="XMLID_424_" class="st12" d="M163.12 79.7v.54l-20.26-11.7V68z"/></g><g id="XMLID_425_"><path id="XMLID_426_" class="st9" d="M166.48 77.75l-3.36 1.95L142.86 68l3.36-1.95z"/></g></g><g class="st0"><g id="XMLID_427_"><path id="XMLID_428_" class="st12" d="M170.73 80.2v.53l-3.37 1.96.01-.54z"/></g><g id="XMLID_429_"><path id="XMLID_430_" class="st12" d="M167.37 82.15l-.01.54-3.31-1.92v-.53z"/></g><g id="XMLID_431_"><path id="XMLID_432_" class="st9" d="M170.73 80.2l-3.36 1.95-3.32-1.91 3.36-1.96z"/></g></g><g class="st0"><g id="XMLID_433_"><path id="XMLID_434_" class="st12" d="M174.96 82.64v.54l-3.36 1.95v-.53z"/></g><g id="XMLID_435_"><path id="XMLID_436_" class="st12" d="M171.6 84.6v.53l-3.31-1.91v-.53z"/></g><g id="XMLID_437_"><path id="XMLID_438_" class="st9" d="M174.96 82.64l-3.36 1.96-3.31-1.91 3.37-1.96z"/></g></g><g class="st0"><g id="XMLID_439_"><path id="XMLID_440_" class="st12" d="M183.45 87.54l-.01.53-3.36 1.96v-.53z"/></g><g id="XMLID_441_"><path id="XMLID_442_" class="st12" d="M180.08 89.5v.53l-7.55-4.36v-.54z"/></g><g id="XMLID_443_"><path id="XMLID_444_" class="st9" d="M183.45 87.54l-3.37 1.96-7.55-4.37 3.36-1.95z"/></g></g></g></g></g><g id="XMLID_51_"><path class="st13" d="M159.25 41.55l38.65 22.31V36.03l-38.65-22.32z"/><path class="st1" d="M195.3 38.68l-13.82-7.98v19.4l13.82 7.98z"/><g id="XMLID_445_"><path class="st10" d="M163.09 21.22l15.49 8.94v-1.14l-15.49-8.94zM163.09 23.85l15.49 8.94v-1.14l-15.49-8.94zM163.09 26.47l15.49 8.95v-1.14l-15.49-8.94zM163.09 29.1l15.49 8.94V36.9l-15.49-8.94zM163.09 31.73l15.49 8.94v-1.14l-15.49-8.94zM163.09 34.36l15.49 8.94v-1.14l-15.49-8.94zM163.09 39.61l10.78 6.23V44.7l-10.78-6.23zM163.09 36.98l15.49 8.95v-1.14l-15.49-8.94z"/></g><path class="st14" d="M187.23 35.76l-4.08 5.81 8.16 4.71z"/><path class="st1" d="M191.85 46.91l-9.1-5.25 4.55-6.47 4.55 11.72zm-8.31-5.43l7.23 4.18-3.62-9.32-3.61 5.14z"/><path class="st14" d="M190.5 39.35l-4.08 5.81 8.16 4.72z"/><path class="st1" d="M195.12 50.5l-9.1-5.25 4.55-6.47 4.55 11.72zm-8.31-5.43l7.23 4.18-3.62-9.32-3.61 5.14z"/><g><path class="st14" d="M193.68 51.27c0 2.03-1.43 2.85-3.18 1.84-1.76-1.01-3.18-3.48-3.18-5.51s1.43-2.85 3.18-1.84c1.76 1.01 3.18 3.48 3.18 5.51z"/><path class="st1" d="M191.92 53.81c-.48 0-1.01-.16-1.56-.47-1.83-1.06-3.32-3.64-3.32-5.75 0-1.08.38-1.9 1.07-2.3.69-.4 1.59-.32 2.52.22 1.83 1.06 3.32 3.64 3.32 5.75 0 1.08-.38 1.9-1.07 2.3-.28.17-.61.25-.96.25zm-2.84-8.22c-.26 0-.49.06-.69.18-.51.3-.8.94-.8 1.82 0 1.94 1.37 4.31 3.05 5.28.76.44 1.46.52 1.98.22.51-.3.79-.94.79-1.82 0-1.94-1.37-4.31-3.05-5.28-.46-.26-.9-.4-1.28-.4z"/></g></g></g><g id="XMLID_446_"><path id="XMLID_447_" class="st11" d="M43.2 166.33l-5.38-3.13c-.65-.38-1.05-1.18-1.05-2.31l5.38 3.13c0 1.13.4 1.93 1.05 2.31z"/><g id="XMLID_448_"><path id="XMLID_449_" class="st8" d="M71.35 54.63l5.38 3.13c-.66-.38-1.56-.33-2.56.25l-5.38-3.13c.99-.58 1.9-.63 2.56-.25z"/><g id="XMLID_450_"><path id="XMLID_451_" class="st11" d="M37.1 160.7l-.17-82.5 4.7 2.73.18 82.51z"/><path id="XMLID_452_" class="st8" d="M37.26 78.78l4.03 2.34.17 81.73-4.03-2.34-.17-81.73m-.67-1.17l.18 83.28 5.38 3.13-.18-83.28-5.38-3.13z"/></g><path id="XMLID_455_" class="st8" d="M45.56 74.51l-5.38-3.12 28.6-16.51L74.16 58z"/><path id="XMLID_456_" class="st8" d="M41.97 80.74l-5.38-3.13c-.01-2.29 1.6-5.08 3.59-6.22l5.38 3.13c-1.99 1.14-3.6 3.93-3.59 6.22z"/><path id="XMLID_457_" class="st15" d="M74.16 58c1.99-1.15 3.61-.22 3.62 2.06l.18 83.28c.01 2.29-1.6 5.08-3.59 6.22l-28.6 16.51c-1.99 1.15-3.61.22-3.62-2.06l-.18-83.28c-.01-2.29 1.6-5.08 3.59-6.22L74.16 58z"/><path class="st10" d="M76 68.31l-32.21 18.6.13 65.58 32.21-18.6z"/><g class="st0" id="XMLID_458_"><g id="XMLID_460_"><path id="XMLID_461_" class="st14" d="M62.34 145.06c-1.99 1.15-3.6 3.94-3.59 6.22.01 2.3 1.63 3.22 3.62 2.07 2-1.15 3.61-3.94 3.6-6.24-.01-2.28-1.63-3.2-3.63-2.05"/></g></g><g class="st0" id="XMLID_459_"><g id="XMLID_463_"><path id="XMLID_464_" class="st16" d="M60.43 68.03c-.42.24-.77.84-.77 1.33 0 .49.35.68.77.44.43-.25.77-.85.77-1.33 0-.49-.34-.69-.77-.44"/><path id="XMLID_465_" class="st16" d="M63.64 69.45l-6.4 3.69c-.39.22-.71.76-.7 1.21 0 .45.32.63.71.4l6.4-3.69c.39-.22.71-.77.7-1.22-.01-.44-.32-.62-.71-.39"/></g></g><g id="XMLID_462_"><g class="st0"><g id="XMLID_467_"><path id="XMLID_468_" class="st17" d="M38.25 94.98l.9-.52c.17-.1.41-.09.68.07l-.9.52c-.27-.15-.51-.17-.68-.07z"/></g><g id="XMLID_469_"><path id="XMLID_470_" class="st17" d="M40.5 96.78l-.9.52c.17-.1.28-.31.28-.61 0-.61-.43-1.34-.95-1.64l.9-.52c.53.3.96 1.04.96 1.64-.01.3-.12.51-.29.61z"/></g><g id="XMLID_471_"><path id="XMLID_472_" class="st8" d="M38.93 95.05c.53.3.96 1.04.95 1.64 0 .61-.43.84-.96.54-.52-.3-.95-1.03-.95-1.64 0-.61.44-.84.96-.54z"/></g></g><g class="st0"><g id="XMLID_473_"><path id="XMLID_474_" class="st17" d="M38.24 99.84l.9-.52c.17-.1.41-.09.67.06l-.9.52c-.26-.15-.5-.16-.67-.06z"/></g><g id="XMLID_475_"><path id="XMLID_476_" class="st17" d="M40.48 101.64l-.9.52c.17-.1.28-.31.28-.61 0-.6-.43-1.34-.96-1.64l.9-.52c.53.3.96 1.05.95 1.64.01.29-.09.51-.27.61z"/></g><g id="XMLID_477_"><path id="XMLID_478_" class="st8" d="M38.91 99.9c.53.3.96 1.05.96 1.64 0 .61-.43.85-.96.55-.52-.3-.95-1.04-.95-1.65 0-.59.43-.84.95-.54z"/></g></g><g class="st0"><g id="XMLID_479_"><path id="XMLID_480_" class="st17" d="M40.24 91.76l-.9.52c.1-.06.17-.19.17-.37l.9-.52c0 .18-.07.31-.17.37z"/></g><g id="XMLID_481_"><path id="XMLID_482_" class="st17" d="M39.52 87.79l.9-.53-.01 4.13-.9.52z"/></g><g id="XMLID_483_"><path id="XMLID_484_" class="st17" d="M38.55 86.75l.9-.52c.1-.06.24-.05.4.04l-.9.52c-.16-.09-.3-.1-.4-.04z"/></g><g id="XMLID_485_"><path id="XMLID_486_" class="st17" d="M38.95 86.79l.9-.52c.32.18.58.63.57 1l-.9.52c.01-.37-.25-.82-.57-1z"/></g><g id="XMLID_487_"><path id="XMLID_488_" class="st8" d="M38.95 86.79c.32.18.58.63.57 1l-.01 4.12c0 .36-.26.51-.58.33-.32-.18-.57-.63-.57-.99l.01-4.12c.01-.37.26-.52.58-.34z"/></g></g></g></g><g id="XMLID_466_"><path class="st14" d="M49.69 93.15l.03 10.49 15.58-8.99-.03-10.49z" id="XMLID_489_"/><path class="st4" d="M63.19 80.67c-.55.32-1 1.1-1 1.73 0 .64.45.89 1.01.57l2.88-1.66c.55-.32 1-1.09.99-1.72 0-.64-.45-.89-1-.58l-2.88 1.66z" id="XMLID_490_"/><g id="XMLID_491_"><g id="XMLID_499_"><path id="XMLID_500_" class="st13" d="M68.25 96.32l-21.46 12.39-.06-19.68 21.46-12.39.06 19.68zm-18.53 7.32l15.58-8.99-.03-10.49-15.58 8.99.03 10.49m17.36-24.05c0-.64-.45-.89-1-.58l-2.88 1.66c-.55.32-1 1.1-1 1.73 0 .64.45.89 1.01.57l2.88-1.66c.54-.32.99-1.09.99-1.72"/></g></g></g><path class="st13" d="M65.32 102.1l-10.76 6.21v.68l10.76-6.21v-.68zm.01 2.13l-10.76 6.21v.68l10.76-6.21v-.68zm-.01-4.26l-10.76 6.21v.68l10.76-6.21v-.68zm.01 6.4l-10.76 6.21v.68l10.76-6.21v-.68zm.02 6.4l-8.03 4.64v.68l8.03-4.64v-.68zm-.01-4.27l-10.76 6.21v.68l10.76-6.21v-.68zm.01 2.13l-10.76 6.21v.68l10.76-6.21v-.68z"/></g><g id="XMLID_501_"><path id="XMLID_502_" class="st18" d="M135.74 189.09l-.76-.44 24.84 7.72.76.44z"/><path id="XMLID_503_" class="st19" d="M92.88 191.64l-.76-.45 24.84 7.86.76.44z"/><path id="XMLID_504_" class="st19" d="M135.74 189.09l-.76-.44 24.71-36.47.77.44z"/><path id="XMLID_505_" class="st2" d="M135.74 189.09l24.72-36.47.12 44.19z"/><path id="XMLID_506_" class="st18" d="M126.75 202.35l-.76-.44 8.99-13.26.76.44z"/><path id="XMLID_507_" class="st18" d="M117.72 199.49l-.76-.44 9.03 2.86.76.44z"/><path id="XMLID_508_" class="st18" d="M93.01 235.83l-.77-.44 24.72-36.34.76.44z"/><path id="XMLID_509_" class="st1" d="M135.74 189.09l24.84 7.72-67.57 39.02 24.71-36.34 9.03 2.86z"/><path id="XMLID_510_" class="st2" d="M92.88 191.64l24.84 7.85-24.71 36.34z"/><path id="XMLID_511_" class="st3" d="M160.46 152.62l-24.72 36.47-8.99 13.26-9.03-2.86-24.84-7.85z"/><path id="XMLID_512_" class="st3" d="M93.01 235.83l-.77-.44-.12-44.2.76.45z"/><path id="XMLID_513_" class="st1" d="M92.88 191.64l-.76-.45 67.57-39.01.77.44z"/></g><g id="XMLID_514_"><path class="st14" d="M195.02 199.05c-.75 0-1.42-.54-1.55-1.31l-12.69-75.76c-.14-.86.44-1.67 1.29-1.81.86-.14 1.67.43 1.81 1.29l12.69 75.76c.14.86-.44 1.67-1.29 1.81-.09.01-.17.02-.26.02z" id="XMLID_1467_"/><path class="st14" d="M216.74 186.51c-.75 0-1.42-.54-1.55-1.31l-12.69-75.76c-.14-.86.44-1.67 1.29-1.81.85-.14 1.67.43 1.81 1.29l12.69 75.76c.14.86-.44 1.67-1.29 1.81-.09.01-.17.02-.26.02z" id="XMLID_1466_"/><g id="XMLID_515_"><path class="st14" d="M184.04 133.47a1.575 1.575 0 01-.78-2.94L204.98 118a1.575 1.575 0 011.57 2.73l-21.72 12.54c-.25.14-.52.2-.79.2z" id="XMLID_1465_"/><path class="st14" d="M186.36 147.32a1.575 1.575 0 01-.78-2.94l21.72-12.54a1.575 1.575 0 011.57 2.73l-21.72 12.54c-.25.14-.52.21-.79.21z" id="XMLID_1464_"/><path class="st14" d="M188.68 161.17a1.575 1.575 0 01-.78-2.94l21.72-12.54a1.575 1.575 0 011.57 2.73l-21.72 12.54c-.25.14-.52.21-.79.21z" id="XMLID_1463_"/><path class="st14" d="M191 175.01a1.575 1.575 0 01-.78-2.94l21.72-12.54a1.575 1.575 0 011.57 2.73l-21.72 12.54c-.25.14-.53.21-.79.21z" id="XMLID_1462_"/><path class="st14" d="M193.32 188.86a1.575 1.575 0 01-.78-2.94l21.72-12.54a1.575 1.575 0 011.57 2.73l-21.72 12.54c-.26.14-.53.21-.79.21z" id="XMLID_1461_"/></g></g><g id="XMLID_518_"><g class="st0" id="XMLID_548_"><g id="XMLID_550_"><path id="XMLID_1300_" class="st20" d="M306.43 204.35l25.94-15.08-.02 3.9-25.93 15.08z"/></g><path class="st21" d="M274.97 186.19l25.94-15.08 31.46 18.16-25.94 15.08z" id="XMLID_551_"/><path class="st9" d="M306.43 204.35l-.01 3.9-31.46-18.17.01-3.89z" id="XMLID_552_"/></g><g class="st0" id="XMLID_549_"><path class="st20" d="M308.5 177.4l3.25-1.88-.05 15.61-3.24 1.88z" id="XMLID_554_"/><path class="st9" d="M308.5 177.4l-.04 15.61-13.06-7.54.05-15.61z" id="XMLID_555_"/><path fill="#0f3247" d="M295.45 169.86l3.24-1.88 13.06 7.54-3.25 1.88z" id="XMLID_556_"/><path class="st21" d="M248.73 64.49l3.24-1.89 106.83 61.68-3.24 1.89z" id="XMLID_557_"/><path class="st21" d="M355.56 126.17l3.24-1.89-.17 78.3-3.25 1.89z" id="XMLID_558_"/><g id="XMLID_559_"><path class="st9" d="M355.56 126.17l-.18 78.3-46.88-27.07-13.05-7.54-46.9-27.07.18-78.3z"/><path class="st10" d="M253.16 134.19l.15-61.75 97.64 56.38-.14 61.75z"/></g></g><g class="st0" id="XMLID_553_"><path class="st20" d="M305.47 168.65l-5.68-3.28c-1.07-.62-1.94-.12-1.94 1.11s.86 2.73 1.93 3.35l5.68 3.28c1.07.62 1.94.12 1.94-1.11.01-1.24-.86-2.73-1.93-3.35" id="XMLID_562_"/></g><g id="XMLID_561_"><path class="st4" d="M302.64 122.99l-.06 21.21-18.46-10.66.06-21.21z" id="XMLID_563_"/><g class="st0"><path class="st9" d="M286.78 105.23c.35.2.64.69.64 1.1 0 .4-.29.57-.64.37-.36-.21-.64-.7-.64-1.1 0-.41.29-.57.64-.37z" id="XMLID_572_"/><g id="XMLID_573_"><path id="XMLID_574_" class="st13" d="M323.26 125.12c.67.39 1.22 1.33 1.22 2.11l-.02 5.77c0-.71-.5-1.58-1.11-1.94l-42.5-24.54c-.62-.36-1.12-.07-1.12.64l.02-5.77c0-.78.55-1.09 1.23-.7l42.28 24.43zm-39.06-19.91c.35.2.64.04.64-.37s-.28-.9-.64-1.1c-.36-.21-.64-.05-.64.36s.28.91.64 1.11m2.58 1.49c.35.2.64.04.64-.37s-.28-.9-.64-1.1c-.36-.21-.64-.05-.64.36s.28.9.64 1.11m-5.16-2.98c.35.2.64.04.64-.36 0-.41-.28-.9-.64-1.1-.36-.21-.64-.04-.64.36 0 .4.29.9.64 1.1"/></g><g id="XMLID_575_"><path id="XMLID_576_" class="st17" d="M323.34 131.07c.62.36 1.12 1.22 1.11 1.94l-.08 27.77c0 .71-.5 1-1.12.64l-42.5-24.54c-.62-.36-1.12-1.23-1.11-1.94l.08-27.77c0-.71.5-1 1.12-.64l42.5 24.54zm-20.76 13.13l.06-21.21-18.46-10.66-.06 21.21 18.46 10.66m17.67.44v-.85l-13.39-7.73v.85l13.39 7.73m.03-7.96v-.85l-13.39-7.73v.85l13.39 7.73m-.01 2.65v-.84l-13.39-7.73v.84l13.39 7.73m.01-5.31v-.84l-13.39-7.73v.84l13.39 7.73m-.03 13.28v-.84l-13.39-7.73v.84l13.39 7.73m.01-5.31v-.84l-13.39-7.73v.84l13.39 7.73m-3.41 6v-.84l-9.99-5.77v.84l9.99 5.77"/></g></g><path class="st18" d="M281.62 102.26c.35.2.64.69.64 1.1 0 .4-.29.57-.64.36-.36-.21-.64-.7-.64-1.1.01-.41.29-.57.64-.36z" id="XMLID_571_"/><path class="st23" d="M284.2 103.74c.35.2.64.69.64 1.1 0 .4-.29.57-.64.36-.36-.21-.64-.7-.64-1.1 0-.4.29-.56.64-.36z" id="XMLID_577_"/></g><path class="st10" d="M306.87 134.26l13.39 7.73v-.84l-13.39-7.73v.84zm.01-2.66l13.39 7.73v-.84l-13.39-7.73v.84zm.02-6.15v.84l13.39 7.73v-.84l-13.39-7.73zm-.01 3.5l13.39 7.73v-.85l-13.39-7.73v.85zm-.03 10.62l13.39 7.73v-.84l-13.39-7.73v.84zm.01-2.66l13.39 7.73v-.85l-13.39-7.73v.85zm-.02 5.31l9.99 5.77v-.84l-9.99-5.77v.84z"/><path class="st14" d="M290.22 117.11l-4.08 5.81 8.16 4.71z"/><path class="st17" d="M294.84 128.26l-9.1-5.25 4.55-6.47 4.55 11.72zm-8.31-5.43l7.23 4.18-3.62-9.32-3.61 5.14z"/><path class="st1" d="M298.59 129.94c0 2.03-1.43 2.85-3.18 1.84-1.76-1.01-3.18-3.48-3.18-5.51s1.43-2.85 3.18-1.84c1.75 1.01 3.18 3.48 3.18 5.51z"/><path class="st17" d="M296.82 132.49c-.48 0-1.01-.16-1.56-.47-1.83-1.06-3.32-3.64-3.32-5.75 0-1.08.38-1.9 1.07-2.3.69-.4 1.59-.32 2.52.22 1.83 1.06 3.32 3.64 3.32 5.75 0 1.08-.38 1.9-1.07 2.3-.28.17-.61.25-.96.25zm-2.84-8.22c-.26 0-.49.06-.69.18-.51.3-.8.94-.8 1.82 0 1.94 1.37 4.31 3.05 5.28.76.44 1.46.52 1.98.22.51-.3.8-.94.8-1.82 0-1.94-1.37-4.31-3.05-5.28-.46-.27-.9-.4-1.29-.4z"/><g><path class="st23" d="M290.51 132.95c0 1.32-.93 1.86-2.08 1.2-1.15-.66-2.08-2.27-2.08-3.6 0-1.32.93-1.86 2.08-1.2 1.15.66 2.08 2.27 2.08 3.6z"/><path class="st17" d="M289.36 134.71c-.33 0-.69-.11-1.06-.32-1.24-.72-2.21-2.4-2.21-3.83 0-.74.26-1.3.75-1.58.48-.28 1.1-.22 1.74.15 1.24.72 2.21 2.4 2.21 3.83 0 .74-.26 1.3-.75 1.58-.21.11-.44.17-.68.17zm-1.86-5.37c-.15 0-.29.03-.4.1-.3.18-.47.57-.47 1.11 0 1.24.87 2.74 1.94 3.36.47.27.89.32 1.2.15.3-.18.47-.57.47-1.11 0-1.23-.87-2.74-1.94-3.36-.29-.17-.56-.25-.8-.25z"/></g></g><g id="XMLID_725_"><g id="XMLID_23225_"><path id="XMLID_1287_" class="st24" d="M261.67 206.74v.52c1.03.61 3.35.28 3.95 0 .4-.6 1.48-.44 2.08-.2 2.31.2 3.16-.14 3.93-.7.39-.29 1.09-1.03 1.01-1.83-2.74.63-10.97 2.21-10.97 2.21z"/><path id="XMLID_1290_" class="st25" d="M265.63 202.74s2.53.71 4.02.93c1.5.21 2.56-.04 2.92.5.36.53-.43 1.92-1.74 2.39-1.32.46-4.02-.07-5.02.14-1 .21-3.53.68-4.13.05-.61-.62 0-3.65 0-3.65l3.95-.36z"/><path id="XMLID_23066_" class="st25" d="M251.61 199.4l4.52-5.06c1.8-.52 3.7-.62 3.46 1.04-.21 1.48-2.57 2.12-4.18 3.56l-1.49 1.32c-1.07.96-2.44.12-2.31-.86"/><path id="XMLID_23073_" class="st26" d="M280.55 134.38c.99-.6 2.29-1.96 2.72-3.02.37-.93.75-1.88.8-2.87a4.57 4.57 0 00-.63-2.55c-.04-.06-.08-.13-.14-.17-.22-.15-.49.11-.63.34-.81 1.28-1.53 2.71-2.54 3.84.07-.43.23-.96.42-1.35.33-.67-.24-.64-.24-.64-.38.24-1.48 2.02-1.64 2.68-.16.66-.55 2.36-.55 2.36l.21.19c-.17.23-.27.38-.27.38-.01-.01 1.81 1.22 2.49.81z"/><path id="XMLID_23072_" d="M251.98 138.52s-6.25 2.27-1.38 8.71l1.38-8.71z" fill-rule="evenodd" clip-rule="evenodd" fill="#20318d"/><path id="XMLID_23070_" class="st26" d="M255.92 125.89c1.34-.22 3.17-.26 4.47.12 2.18.64 3.37 2.04 3.9 4.11.53 2.09.69 5.57-.51 7.5-.75 1.21-2.41.98-3.6.67-1.44-.38-3.32-1-4.49-1.89-1.64-1.24-2.51-3.95-2.61-5.92-.08-1.69.79-4.26 2.84-4.59"/><path id="XMLID_23069_" class="st26" d="M255.89 135.96c.18.19.36.36.56.51 1.18.89 2.3 1.44 3.74 1.82.23.06.48.11.73.16l-.11 1.31c-1.53.42-3.01-.23-4.07-.52-.79-.22-2-.42-2-1.24l1.15-2.04z"/><path id="XMLID_23068_" class="st25" d="M254.22 126.27c-1.31.87-1.21 2.84-1.14 4.21.1 1.96.97 4.68 2.61 5.92.91.68.95.76 2.16 1.14.11-.05.39-.24.7-.47.68-.5 1-1.37.75-2.17-.24-.79-.27-1.74.18-1.98.73-.4 1.22 1.02 1.22 1.02.42-.15 1.06-.64.71-1.49-.35-.84 0-1.73 0-1.73 1.3.03 1.9-1.74 2.31-1.97.88-.49 1.17-.69 1.03-1.52-.09-.55-.32-1.09-.72-1.46-.46-.43-2-1.01-2.6-1.16-3.6-.91-6.38-.27-7.21 1.66z"/><path id="XMLID_23065_" class="st24" d="M253.92 200.27l1.49-1.32c1.62-1.44 3.97-2.08 4.18-3.56v-.01c.02.15.02.31 0 .5-.21 1.48-2.57 2.12-4.18 3.56l-1.49 1.32c-1.26 1.12-2.6.32-2.31-1.34-.13.96 1.24 1.8 2.31.85"/><path id="XMLID_23064_" class="st28" d="M251.64 164.21c-1.56 2.21 2.34 8.33 1.28 15.95-.72 5.17-2.14 13.84-1.8 18.74.06.89 3.55 1.53 4.49-2.79 1.61-7.34 3.62-11.92 4.33-17.62l-.38-16.52-7.92 2.24z"/><path id="XMLID_23063_" class="st28" d="M256.63 163.4c-.43 6.86 4.49 15.26 4.16 20.8-.34 5.71.29 12.66.3 18.85 0 0 5.05 2.39 5.28-1.3.74-12.12 3.06-15.89-.07-38.06l-9.67-.29z"/><path id="XMLID_23228_" class="st29" d="M265.79 156.76c.18-6.61-1.06-13.13-1.06-13.13-.6-.86-1.31-1.59-2.16-2.2l-1.62-1.96c-2.06-.51-4.08-1.12-6.04-1.84l-2.93.88c-2.38 1.01-3.17 4.09-2.11 7.17-.03.14 2.42 7.13 2.7 9.72.03.25-1.81 7.11-2.21 9.91 0 0 1.74 1.59 2.22 1.99 3.54 4.4 15.13-.94 15.56-3.28.17-.85-1.25-3.57-2.35-7.26z"/></g><path id="XMLID_726_" class="st1" d="M261.89 148.23c-2.34.06-4.38-3.06-3.1-5.03.46-.7.88-1.28 1.66-1.51 1.93-.55 7.69.78 11.36.88 2.94-3.58 6.19-9.95 6.19-9.95 2.29.15 2.94 1.8 2.94 1.8-4.96 12.76-6.59 12.95-6.86 13.25-.28.31-12.17.56-12.19.56z"/></g><g id="XMLID_516_"><g id="XMLID_560_"><path id="XMLID_519_" d="M307.02 241.79c.01.18.01.37 0 .55v-.55z"/><path id="XMLID_520_" d="M307.02 249.63c.01.14.01.29 0 .45v-.45z"/><path id="XMLID_521_" class="st14" d="M307.02 249.63v.45c-.08 1.79-1.3 3.56-3.64 4.91l-91.5 52.83c-4.86 2.81-12.83 2.81-17.69 0L130 270.75c-2.46-1.42-3.68-3.31-3.65-5.17V257.8c.01 1.84 1.23 3.68 3.65 5.07l64.2 37.07c4.86 2.81 12.82 2.81 17.69 0l91.5-52.83c2.27-1.31 3.5-3.02 3.64-4.76v7.28z"/><path id="XMLID_522_" d="M284.93 226.24l6.81 3.94h.01l11.63 6.71c2.34 1.35 3.56 3.11 3.64 4.9v.55c-.14 1.74-1.37 3.45-3.64 4.76l-91.5 52.83c-4.86 2.81-12.83 2.81-17.69 0L130 262.86c-2.42-1.39-3.64-3.23-3.65-5.07-.01-1.86 1.2-3.73 3.65-5.14l91.52-52.83c4.86-2.81 12.81-2.81 17.67 0l18.44 10.64-6.83 3.96-20.47-11.82-88.72 51.22 68.25 39.39L298.59 242l-20.47-11.82v-.01l6.8-3.94v.01h.01z" fill="#6f6fa5"/><path id="XMLID_523_" class="st17" d="M278.12 230.18v-.01l-27.31-15.75-20.47-11.82-88.71 51.22 68.24 39.4L298.59 242z"/></g><g class="st0" id="XMLID_517_"><g id="XMLID_537_"><path id="XMLID_538_" class="st1" d="M278.08 213.27l-.02 8.8c0-.45-.3-.91-.89-1.25-1.19-.69-3.11-.69-4.29 0-.59.34-.89.79-.89 1.24l.02-8.8c0-.45.3-.9.89-1.24 1.18-.69 3.1-.69 4.29 0 .6.34.89.79.89 1.25z"/></g><g id="XMLID_539_"><path id="XMLID_540_" class="st1" d="M286.45 216.01l-.03 8.8c0 1.52-1 3.04-3 4.2l.02-8.8c2.01-1.16 3.01-2.68 3.01-4.2z"/></g><g id="XMLID_541_"><path id="XMLID_542_" class="st1" d="M283.45 220.21l-.02 8.8-2.42 1.41.02-8.8z"/></g><path id="XMLID_543_" class="st1" d="M284.27 230.31c-2.09 1.22-5.51 1.22-7.61 0l-31.06-17.93c-1.06-.61-1.59-1.42-1.59-2.22l-.02 1.82c0 .8.53 1.61 1.59 2.22l31.06 17.93c2.11 1.22 5.52 1.21 7.61 0l5.89-3.42.02-1.82-5.89 3.42z"/><g id="XMLID_544_"><path id="XMLID_545_" class="st3" d="M281.03 221.62l9.13 5.27-5.89 3.42c-2.09 1.22-5.51 1.22-7.61 0l-31.06-17.93c-2.11-1.22-2.12-3.2-.02-4.41l5.89-3.42 9.14 5.28 2.42-1.41c4.02-2.34 10.54-2.34 14.58 0l5.81 3.35c4.04 2.33 4.06 6.11.04 8.44l-2.43 1.41zm-8.13-7.11c1.19.69 3.11.69 4.3 0 1.18-.69 1.17-1.8-.01-2.49-1.19-.69-3.11-.69-4.29 0-1.19.69-1.19 1.8 0 2.49"/></g></g></g><path d="M265.98 241.18l-33.87-19.55-1.84 1.07 33.87 19.55 1.84-1.07zm-54.33-19.76l-1.84 1.07 54.76 31.62 1.84-1.07-54.76-31.62zm-11.86 6.89l54.76 31.62 1.84-1.07-54.76-31.62-1.84 1.07zm-10.03 5.82l54.76 31.62 1.84-1.07-54.76-31.62-1.84 1.07zm-10.02 5.83l54.76 31.62 1.84-1.07-54.76-31.62-1.84 1.07zm-10.02 5.82L204.74 266l1.84-1.07-35.02-20.22-1.84 1.07z" fill="#ceccff" id="XMLID_524_"/><g id="XMLID_1419_"><path id="XMLID_1459_" class="st14" d="M223.15 106.58c.11-.39.23-.77.41-1.15.05-.12.12-.24.22-.32.39-.28 1.55.13 1.95.31 1.6.7 2.47 2.51 3.43 3.86s1.93 2.75 3.06 3.98c1.55 1.67-.29 2.33-2.61 2.26-1.57-.05-2.65-1.32-3.78-2.22-.9-.71-2.31-.85-2.98-1.82-.5-.72-.37-1.69-.19-2.55.17-.81.29-1.58.49-2.35z"/><path id="XMLID_1458_" class="st14" d="M212.63 114.59c.11-.39.24-.79.42-1.18.05-.12.12-.25.23-.33.4-.29 1.59.14 2 .32 1.64.72 2.53 2.57 3.51 3.95.99 1.39 1.97 2.82 3.13 4.07 1.58 1.71-.3 2.39-2.68 2.31-1.61-.05-2.71-1.35-3.87-2.27-.92-.73-2.36-.87-3.05-1.87-.51-.74-.38-1.73-.19-2.61.17-.82.29-1.61.5-2.39z"/><path id="XMLID_1454_" class="st9" d="M197.56 84.06s15.91 7.4 18.32 11.32c2.42 3.92 2.06 19.76 2.06 19.76-3.7 1.57-5.71 0-5.71 0-2.04-10.43-2.58-14.79-2.58-14.79-11.8-5.44-15.5-6.79-12.09-16.29z"/><path id="XMLID_1424_" class="st9" d="M207.16 82.58s14.33 3.14 18.02 5.52c3.7 2.38 2.57 18.39 2.57 18.39-2.76 1.49-5.13 0-5.13 0-1.01-7.91-2.25-11.63-2.25-11.63s-12.57-2.84-16.29-4.66c-5.91-2.88 1.35-7.95 3.08-7.62z"/><path id="XMLID_1468_" class="st25" d="M210.14 59.26c1.79.85 1.63 13.42 1.75 14.92.12 1.5 7.75 11.14 7.75 11.14-.99 2.1-3.81 2.46-3.81 2.46-.39-.53-6.49-6.75-8.78-11.15-2.29-4.39-1.54-19.57 3.09-17.37z"/><path id="XMLID_1453_" class="st32" d="M208.61 58.47c-3.59-.18-9.91 1.65-12.67 5.13s-1.02 7.79-.09 11.51c.93 3.73-.24 10.51-.24 11.41 4.24 2.84 11.73.25 12.91-3.95.5-4.58-.36-3.83-.41-6.51.16-5.76 5.24-15.86.5-17.59z"/><path id="XMLID_1452_" class="st25" d="M205.47 59.31c1.87 8.12.53 15.23.12 18.67-.41 3.44 1.57 11.78 1.57 11.78 2.77-1.4 3.21-3.85 3.09-5.03-.82-8.05-.93-9.58-.9-9.84.51-4.35 2.25-7.63 2.1-11.78-.15-4.15-2.85-4.64-2.85-4.64l-3.46-.02.33.86z"/><path id="XMLID_1450_" d="M200.55 55.99s.28 3.36-.61 4.59c-.07.83 2.28 4.34 4.64 3.74 1.37-.35 1.22-1.95 1.22-1.95-.14-1.22.02-4.17.02-4.17l-5.27-2.21z" fill-rule="evenodd" clip-rule="evenodd" fill="#f4ae92"/><path id="XMLID_1448_" class="st25" d="M199.79 60.04c2.76 5.91 1.72 9.55 1.6 14.41-.12 4.86-2.64 18.51-2.64 18.51-4.84-1.21-6.35-2.28-7.28-3.94 2.1-9.48 1.83-21.55 2.45-25.43.5-3.09 5.87-3.55 5.87-3.55z"/><path class="st24" d="M199.34 89.61c.29-1.71.66-3.88 1-6.11-1.54-1.96-2.97-3.94-3.02-4.62-.12-1.5 1.76-14.15-.03-15.01-1.44-.68-2.67.32-3.61 2.17-.25 3.68-.37 9.61-1.03 15.59 1.77 3.23 5.02 6.39 6.69 7.98z"/><path id="XMLID_1445_" class="st34" d="M200.42 59.26c-.02.1-.63.78-.63.78s1.2 2.66 1.63 3.83c.43 1.17 1.57 2.15 1.57 2.15l1.58-1.71c-2.15-1.15-4.15-5.05-4.15-5.05z"/><path id="XMLID_1444_" class="st34" d="M205.61 60.13c-.14-.18-.51 3.31-1.03 4.19 1 .95 1.6 1.21 1.6 1.21s.62-3.9-.57-5.4z"/><path id="XMLID_1451_" class="st26" d="M210.05 51.74s-.15 2.11-.47 3.73c-.53 2.63-1.46 4.69-3.1 5.38-1.65.69-4.1-.55-5.18-2s-1.32-4.27-.77-6.82c.55-2.55 2.26-5.43 5.89-4.44 3.61 1 3.63 4.15 3.63 4.15z"/><path id="XMLID_1460_" class="st15" d="M210.25 53.13c.12 1.57-5.03.97-6.4.42-.31 1.35-.77 1.94-1.26 2.07-.49.13-.99 2.28-1.29 3-1.86-1.99-1.71-4.82-1.49-8.07.22-3.25 3.07-3.16 3.07-3.16 1.92.25 7.04 1.39 7.37 5.74z"/><path id="XMLID_1470_" class="st15" d="M201.3 49.07c1.35-2.41 6.81-3.08 8.96.72 2.15 3.8-.76 3.72-.76 3.72l-8.2-4.44z"/><path id="XMLID_1472_" class="st35" d="M202.84 55.75c.27-1.58.06-2.22-.77-1.84-.83.38-1.04 2.34 0 2.63 1.05.29.77-.79.77-.79z"/><g id="XMLID_1449_"><path id="XMLID_1441_" class="st36" d="M222.78 87.53l-8.96-5.17-15.14 8.74-1.17.17v.3c0 .13.05.22.17.29l9.13 5.27c.28.16.76.14 1.08-.04l15.14-8.74c.2-.11.28-.26.26-.4v-.5l-.51.08z"/><g id="XMLID_1294_"><path id="XMLID_1436_" d="M223.04 87.85L207.9 96.6c-.32.18-.8.2-1.08.04l-9.29-5.37 16.3-9.41 9.29 5.37c.28.16.24.44-.08.62z" fill-rule="evenodd" clip-rule="evenodd" fill="#2b3bbd"/><path id="XMLID_1429_" d="M223.04 87.85L207.9 96.6c-.32.18-.8.2-1.08.04l-9.29-5.37 16.3-9.41 9.29 5.37c.28.16.24.44-.08.62z" fill-rule="evenodd" clip-rule="evenodd" fill="#ceccff"/><path id="XMLID_1297_" class="st28" d="M222.21 87.72l-14.75 8.52-4.4-2.54 14.75-8.52z"/><path id="XMLID_1296_" class="st36" d="M211.69 87.4l-3.51 2.03c-.2.11-.5.13-.67.03l-1.68-.97c-.17-.1-.15-.27.05-.39l3.51-2.03c.2-.12.5-.13.67-.03l1.68.97c.17.1.15.28-.05.39z"/></g><g id="XMLID_1304_"><path id="XMLID_1305_" class="st36" d="M223.04 87.85L207.9 96.6l5.36-11.25c.18-.36.54-.78.82-.94l14.24-8.22c.28-.16.36 0 .18.36l-5.46 11.3z"/></g></g><path id="XMLID_1299_" class="st26" d="M203.28 86.29s1.16.49 2.1.79c.93.3 1.98.9 2.45 1.18.48.27.08.54-.57.55-.65 0-1.6-.34-1.6-.34s1.5.65 1.98.89c.49.24 1.64 1.09 1.61 1.36-.03.27-.98-.1-.98-.1s.46.3.6.59c.14.29-.3.49-.79.27s-2.01-.72-2.01-.72 1.56.76 1.75 1.05c.19.29-.37.47-.96.2-.59-.27-1.66-.69-1.66-.69s1.1.57 1.22.82c.11.25-.52.26-1.12 0-.6-.26-3.03-1.64-3.6-2.2-.57-.56-1.06-1.75-1.06-1.75l2.64-1.9z"/><path id="XMLID_1456_" class="st25" d="M196.72 61.6c1.79.85-.08 13.51.03 15.01.12 1.5 6.87 9.28 6.87 9.28-.99 2.1-3.81 2.46-3.81 2.46-.39-.53-5.61-4.89-7.9-9.28-2.29-4.41.19-19.67 4.81-17.47z"/></g><g id="XMLID_1420_"><path id="XMLID_1491_" class="st29" d="M87.43 85.57s-6.36 4.5-9.03 5.99c-2.66 1.49-12.43-4.3-12.43-4.3s-2.05.66-1.43 2.92c6.81 4.59 11.88 7.15 13.91 6.69 2.03-.46 7.66-2.81 9.73-3.91 2.07-1.1 2.09-7.65-.75-7.39z"/><g id="XMLID_1482_"><path id="XMLID_1490_" class="st28" d="M88.6 154.91c-.13 1.84-.3 3.68-.3 3.68h-.41s0-2.78-.43-2.2c.05-1.51 1.14-1.48 1.14-1.48z"/><path id="XMLID_1489_" class="st26" d="M82.91 158.05c-.2 0-.46-.21-.7-.54.42-.5.83-.99 1.11-1.37.89-1.23 2.32-3.95 2.38-5.18.07-1.23-.68-14.04-.89-15.6-.2-1.57-.79-7.49-.74-7.84.06-.34 5.51 2.11 5.51 2.11-.07.48-.81 3.55-.5 5.53.3 1.98.78 3.28.5 6.51-.27 3.23-1.84 8.41-1.29 10.86.01.04.02.08.03.13-1.6 2.19-2.16 6.47-5.41 5.39z"/><path id="XMLID_1488_" class="st28" d="M82.21 157.51c.24.32.5.54.7.54 3.24 1.08 3.81-3.19 5.41-5.39.51 2.33.28 2.61-.14 2.94-.43.34-1.93 2.18-2.2 3.47-.27 1.29-4.36 1.16-5.11.89-.52-.19.42-1.35 1.34-2.45z"/><path id="XMLID_1487_" class="st26" d="M94.18 140.67c.16 1.43 1 12.47.86 14.31-.08 1.12-.62 2.89-.95 4.31-.21.9-.34 1.66-.21 2.03.33.94.34 3.75 1.86 3.12 1.53-.63 2.53-2.59 2.22-4.75-.31-2.16.06-3.2-.03-4.5-.09-1.29.78-9.34.92-12.19.14-2.87-.82-4.23-.89-6.14-.07-1.91.51-5.89.51-5.89s-6.57-3.44-6.03.71c.55 4.15 1.58 7.56 1.74 8.99z"/><path id="XMLID_1486_" class="st28" d="M100.97 109.05c.89 4.07-1.24 6.78-1.63 7.7-.39.92.86 12.45.86 12.45-3.45 4.81-15.52 1.85-17.49-1.17.27-7.1.95-18.73.88-19.96-.06-1.24 17.38.98 17.38.98z"/><path id="XMLID_1483_" class="st28" d="M93.61 161.42c.1 1.92.61 3.65 2.13 3.02 1.53-.63 2.53-2.59 2.22-4.75-.82 2.39-3.94 2.28-3.88-.39-.2.89-.49 1.73-.47 2.12z"/></g><path id="XMLID_1446_" class="st28" d="M89.2 70.78c-2.08 1.98-2.77 3.71-2.47 5.65.3 1.94.65 4.41-.35 5.14 2.12 1.64 6.12-.73 6.04-1.17-.08-.43-2.23-6.69-2.43-6.74l-.79-2.88z"/><path id="XMLID_1443_" class="st28" d="M87.43 85.5c4.45-2.08 12.09-.88 15.08 2.19s-3.29 8.74-4.33 12 6.12 12.42 3.76 15.23c-4.63 2.47-17.99.78-19.25-2.91.05-5.47 3.54-10.26 2.71-12.54-.04-1.46-2.28-6.22-1.39-8.06 1.83-3.75 1.44-4.76 3.42-5.91z"/><path id="XMLID_1434_" class="st26" d="M87.96 73.42s-.61 2.14-.38 3.81c.23 1.66.38 4.98 1.85 6.04 1.47 1.06 3.59-.17 4.99-1.36 1.4-1.19 2.88-3.38 2.92-6.03.03-2.65-1-5.9-4.83-5.74-3.82.17-4.55 3.28-4.55 3.28z"/><path id="XMLID_1432_" class="st26" d="M94.47 81s-.25 3.41.5 4.67c.05.84-1.95 4.4-3.93 3.78-1.16-.36-1.02-1.99-1.02-1.99.12-1.24 0-4.24 0-4.24L94.47 81z"/><path id="XMLID_1428_" class="st28" d="M91.47 73.53c.78 2.72 3.17 3.37 3.17 3.37.39 3.63-.47 6.2-1.64 6.77 3.17 1.15 5.01.27 5.87-1.43s1.54-8.96-2.03-11.17c-3.56-2.2-5.37 2.46-5.37 2.46z"/><path id="XMLID_1427_" class="st28" d="M91.47 73.53c-1.1 1.49-3.54 1.55-3.94 1.49.05-5.77 5.62-6.35 7.44-4.28-1.49 2.86-3.5 2.79-3.5 2.79z"/><path id="XMLID_1425_" class="st32" d="M95.78 100.3c-.22-.1 1.08-10.36 1.08-10.36l-9.05-1.79-.38 15.85 8.2 1.92.15-5.62z"/><path id="XMLID_1422_" class="st26" d="M90.95 97.68s-2.88-2.81-3.52-3.46c-.64-.65-.63.22.2 1.73-1.3.31-2.13 2.05-2.22 2.66-.09.61 1.56 2.18 2.03 2.37.47.19 2.4 0 2.4 0l1.11-3.3z"/><path id="XMLID_1421_" class="st29" d="M101.05 87.2c-2.47.18-2.87 13.54-2.87 13.54s-6.76-3.14-7.23-3.06c-2.5.54-1.13 3.29-1.13 3.29 5.29 4.02 7.43 6.33 10.01 5.83s4.53-9.73 4.44-13.89c-.09-4.16-1.66-5.82-3.22-5.71z"/><path id="XMLID_1492_" class="st26" d="M66.06 88.03c-.2-.1-.97-1.52-1.35-1.86-.38-.35-1.88-1.19-2.3-1.88-.42-.69-.46.95 0 1.32.46.37.84.72.84.72s-2.56-1.55-3.29-1.69-1.69-.44-1.84 0c-.15.44.32 2.47.74 2.93.42.46 1.28.99 2.43 1.56 1.15.58 3.84.75 3.84.75.68-.46 1.02-1.07.93-1.85z"/></g><g id="XMLID_1512_"><path id="XMLID_1517_" class="st29" d="M203.86 225.52l12-6.93v-66.08l-12 6.92z"/><path id="XMLID_1515_" fill-rule="evenodd" clip-rule="evenodd" fill="#fbd15b" d="M184.96 236.43l12-6.93v-32.65l-12 6.93z"/><path id="XMLID_1514_" fill-rule="evenodd" clip-rule="evenodd" fill="#878cf0" d="M166.07 247.34l12-6.93v-44.98l-12 6.92z"/></g><g id="XMLID_1493_"><g id="XMLID_1497_"><path id="XMLID_1513_" class="st35" d="M221.27 167.18s-.97-6.32-2.38-8.09c-1.41-1.76-.05 2.97-.28 3.36-1.46.64-2.49 2.45-1.62 3.89.87 1.45 1.98 1.44 1.98 1.44l2.3-.6z"/><path id="XMLID_1502_" d="M235.74 185.11c-9.67-3.45-11.02-4.33-11.02-4.33s-2.61-12.02-2.91-14.1c-1.98-.59-3.96 1.11-3.96 1.11 1.11 9.84 1.15 14.81 2.07 16.79.92 1.98 9.99 5.99 12.47 7.05 2.5 1.06 6.91-1.99 3.35-6.52z" fill="#46467f"/><path id="XMLID_1511_" class="st26" d="M226.94 173.18c-2.08.92-3.99 7.86-2.85 10.3 1.14 2.44 2.95 2.63 5.23 2.02s4.87-3.6 5.71-6.38c1.15-3.79-2.17-8.58-8.09-5.94z"/><g id="XMLID_1499_"><g id="XMLID_1500_"><path id="XMLID_1510_" class="st24" d="M224.51 256.81v.55c-1.09.64-3.54.3-4.18 0-.42-.64-1.56-.47-2.21-.22-2.45.22-3.35-.15-4.17-.75-.41-.3-1.16-1.09-1.07-1.93 2.92.67 11.63 2.35 11.63 2.35z"/><path id="XMLID_1509_" class="st25" d="M220.32 252.57s-2.68.75-4.26.98c-1.58.23-2.71-.04-3.09.53-.38.57.45 2.04 1.85 2.53 1.39.49 4.26-.08 5.31.15 1.06.23 3.73.71 4.37.06.64-.66 0-3.86 0-3.86l-4.18-.39z"/><path id="XMLID_1508_" class="st25" d="M235.16 249.04l-4.79-5.36c-1.91-.55-3.92-.66-3.66 1.1.23 1.56 2.72 2.25 4.43 3.77l1.58 1.4c1.13 1.01 2.58.13 2.44-.91"/><path id="XMLID_1507_" class="st26" d="M230.63 181.88c-.19.2-.38.38-.59.54-1.25.94-2.43 1.53-3.95 1.93-.24.06-.5.12-.77.17l.12 1.39c1.62.44 3.19-.24 4.3-.55.83-.23 2.12-.44 2.12-1.32l-1.23-2.16z"/><path id="XMLID_1506_" class="st24" d="M232.72 249.95l-1.58-1.4c-1.71-1.52-4.2-2.2-4.43-3.77v-.01c-.03.15-.03.33 0 .53.23 1.56 2.72 2.25 4.43 3.77l1.58 1.4c1.34 1.19 2.75.34 2.44-1.42.14 1.03-1.31 1.91-2.44.9"/><path id="XMLID_1505_" d="M235.13 211.78c1.65 2.34-2.48 8.82-1.35 16.89.77 5.47 2.26 14.65 1.9 19.84-.07.94-3.76 1.62-4.76-2.95-1.7-7.77-3.83-12.62-4.58-18.65l.4-17.49 8.39 2.36z" fill-rule="evenodd" clip-rule="evenodd" fill="#e56363"/><path id="XMLID_1504_" class="st29" d="M229.84 210.93c.46 7.26-4.75 16.15-4.4 22.02.36 6.05-.3 13.4-.32 19.95 0 0-5.35 2.53-5.59-1.38-.79-12.82-3.24-16.82.07-40.28l10.24-.31z"/><path id="XMLID_1501_" class="st25" d="M220.15 203.9c-.19-7 1.12-13.9 1.12-13.9.63-.91 1.39-1.68 2.28-2.33l1.71-2.07c1.22-.3 2.42-.63 3.6-1 1.92-.6 3.97-.59 5.9-.01 2.52 1.07 3.01 2.77 1.88 6.03.03.15-2.22 9.11-2.51 11.85-.03.27 1.91 7.53 2.34 10.49 0 0-1.84 1.69-2.35 2.11-3.75 4.65-16.01-.99-16.47-3.47-.17-.92 1.34-3.8 2.5-7.7z"/></g></g><path id="XMLID_1498_" class="st24" d="M226.17 173.61s-.61.56-.99 1.77-.28 2.03-.31 2.65c-.03.62-.29.97-.16 1.28.13.31.89-1.38 1.61-1.56.73-.17.62 2.01-.97 2.63-.68 1.04-.14 3.59.24 4.14.38.56 2.73 1.26 4.72.57 1.99-.7 3.3-2.7 4.94-5.33 1.64-2.63 0-4.53 0-4.53.81-1.8-5.34-4.11-7.9-4.18-1.58.03-1.18 2.56-1.18 2.56z"/></g><g id="XMLID_1494_"><g id="XMLID_1519_"><g id="XMLID_1496_"><path id="XMLID_1536_" class="st35" d="M209.43 204.77c0-.04-4.47.06-5.1-.67-.63-.73-.65-3.69-.65-3.69l-.45-1.48-.04-.14s.04-.02.12-.02c.2 0 .57.04.79.32.18.22.38.65.53 1.05.08.16.12.3.18.41.06.14.1.26.12.3.02.04.14.1.32.16.12.04.24.08.38.14.55.16 1.3.38 1.82.51.2.04.34.08.43.1h.02c.08.02.12.04.12.04s1.39 2.97 1.41 2.97z"/></g></g><g id="XMLID_1522_"><path id="XMLID_1529_" class="st28" d="M208.62 201.15c-.08.08-.4.34-.73.59h-.02c-.1-.02-.24-.06-.43-.1l1.11-.89-3.22-3.48-2.05 1.44.04.04c.2 0 .57.04.79.32.18.22.38.65.53 1.05l.99 1.01c-.14-.06-.26-.1-.38-.14-.14-.16-.3-.3-.43-.45l-1.52-1.56-.06-.06c-.24-.26-.3-.34-.16-.43.14-.12 1.82-1.26 1.94-1.34.12-.08.26-.04.41.14.16.16 3.24 3.42 3.32 3.5.04.04.02.18-.13.36z"/><g id="XMLID_1520_"><path id="XMLID_1527_" class="st32" d="M208.54 200.76l-1.11.89c-.51-.14-1.26-.36-1.82-.51l-.99-1.01-1.32-1.36-.04-.04 2.05-1.44 3.23 3.47z"/></g></g><path id="XMLID_1503_" class="st35" d="M210.02 202.83s-1.2-2.09-1.28-2.28c-.08-.19-1.78-.97-2.41-1.31-.63-.34-.34.92.53 1.41.87.49.94 3.5 1.88 3.74.94.24 1.28-1.56 1.28-1.56z"/></g><path id="XMLID_1495_" d="M227.69 193.11c.69-2.38-1.95-5.31-4.31-4.53-.84.28-1.55.55-1.99 1.29-1.09 1.83-1.27 8.08-2.17 11.87-3.79.85-9.55-.1-9.55-.1-1.3 2.02-1 3.46-.63 3.62 8.59 3.83 13.58 2.09 13.96 1.89.38-.2 4.68-14.01 4.69-14.04z" fill="#66669e"/></g></svg>