<?xml version="1.0" encoding="utf-8"?>
<!-- Generator: Adobe Illustrator 25.0.0, SVG Export Plug-In . SVG Version: 6.00 Build 0)  -->
<svg version="1.1" id="Layer_1" xmlns="http://www.w3.org/2000/svg" xmlns:xlink="http://www.w3.org/1999/xlink" x="0px" y="0px"
	 viewBox="0 0 15 15" style="enable-background:new 0 0 15 15;" xml:space="preserve">
<style type="text/css">
	.st0{fill:#ED1C24;}
	.st1{fill:#FAFAFA;}
</style>
<g>
	<path class="st0" d="M7.5,0C3.36,0,0,3.36,0,7.5S3.36,15,7.5,15S15,11.64,15,7.5S11.64,0,7.5,0z"/>
	<path class="st1" d="M11.3,5.91L7.24,9.97c-0.12,0.12-0.28,0.18-0.44,0.18s-0.32-0.06-0.44-0.18L4.32,7.94
		c-0.24-0.24-0.24-0.64,0-0.88c0.24-0.24,0.64-0.24,0.88,0L6.8,8.65l3.62-3.62c0.24-0.24,0.64-0.24,0.88,0
		C11.55,5.27,11.55,5.67,11.3,5.91z"/>
</g>
</svg>
