<?xml version="1.0" encoding="utf-8"?>
<!-- Generator: Adobe Illustrator 15.0.0, SVG Export Plug-In . SVG Version: 6.00 Build 0)  -->
<!DOCTYPE svg PUBLIC "-//W3C//DTD SVG 1.1//EN" "http://www.w3.org/Graphics/SVG/1.1/DTD/svg11.dtd">
<svg version="1.1" id="Layer_1" xmlns="http://www.w3.org/2000/svg" xmlns:xlink="http://www.w3.org/1999/xlink" x="0px" y="0px"
	 width="548px" height="224.914px" viewBox="0 139.703 548 224.914" enable-background="new 0 139.703 548 224.914"
	 xml:space="preserve">
<path opacity="0.1" fill="#9393FE" enable-background="new    " d="M493.2,217.736c-10.321-1.083-17.314-1.633-18.904-1.343
	c-8.507,1.553-364.239,30.958-380.48,29.4c-4.777-0.457-74.72-8.026-93.815-10.848v87.988
	c19.724-30.832,105.759-6.288,135.096,8.363c77.334,38.625,113.347,49.143,204.601,1.911
	c61.75-31.962,151.262-13.657,196.762,21.407L493.2,217.736z"/>
<path fill="#F8F8FF" d="M548,148.809c-12.088,0.199-58.255,18.57-82.086,23.724c-25.002,5.407-35.62-13.282-74.665-26.943
	c-39.045-13.662-22.604-1.749-49.548,17.353c-26.943,19.103-51.489,10.348-110.97-5.708c-59.481-16.057-42.242-4.149-63.02-1.37
	s-14.842,20.167-34.25,17.353c-19.408-2.813-31.624-13.967-49.777-19.18C72.799,150.912,7.037,164.79,0,172.889v117.578
	c4.42,1.425,63.689,3.299,68.196,5.549c77.334,38.624,115.63,83.392,206.884,36.161c90.529-46.856,202.55-22.671,272.92,30.771
	V148.809L548,148.809z"/>
</svg>
